<?xml version="1.0" encoding="utf-8"?>
<!-- Generator: Adobe Illustrator 18.0.0, SVG Export Plug-In . SVG Version: 6.00 Build 0)  -->
<!DOCTYPE svg PUBLIC "-//W3C//DTD SVG 1.1//EN" "http://www.w3.org/Graphics/SVG/1.1/DTD/svg11.dtd">
<svg version="1.1" id="レイヤー_1" xmlns="http://www.w3.org/2000/svg" xmlns:xlink="http://www.w3.org/1999/xlink" x="0px"
	 y="0px" viewBox="0 0 453.8 121" enable-background="new 0 0 453.8 121" xml:space="preserve">
<g>
	<path d="M25.4,2.8V97h56.4v21.4H0V2.8H25.4z"/>
	<path d="M94.9,37c2.6-7.4,6.3-13.9,11.2-19.4c4.9-5.5,10.8-9.8,17.9-13c7.1-3.1,15-4.7,23.9-4.7c9,0,17,1.6,24,4.7
		c7,3.1,13,7.5,17.8,13c4.9,5.5,8.6,12,11.2,19.4c2.6,7.4,3.9,15.4,3.9,24.1c0,8.4-1.3,16.3-3.9,23.6c-2.6,7.3-6.3,13.6-11.2,19
		c-4.9,5.4-10.8,9.6-17.8,12.7c-7,3.1-15,4.6-24,4.6c-8.9,0-16.8-1.5-23.9-4.6c-7.1-3.1-13-7.3-17.9-12.7c-4.9-5.4-8.6-11.7-11.2-19
		C92.3,77.4,91,69.5,91,61.1C91,52.4,92.3,44.4,94.9,37z M118.2,75.2c1.1,4.6,2.9,8.7,5.4,12.4c2.5,3.7,5.7,6.6,9.7,8.8
		c4,2.2,8.9,3.3,14.6,3.3c5.7,0,10.6-1.1,14.6-3.3c4-2.2,7.2-5.2,9.7-8.8c2.5-3.7,4.3-7.8,5.4-12.4c1.1-4.6,1.7-9.3,1.7-14.2
		c0-5.1-0.6-10-1.7-14.7c-1.1-4.8-2.9-9-5.4-12.7c-2.5-3.7-5.7-6.7-9.7-8.9c-4-2.2-8.9-3.3-14.6-3.3c-5.7,0-10.6,1.1-14.6,3.3
		c-4,2.2-7.2,5.2-9.7,8.9c-2.5,3.7-4.3,8-5.4,12.7c-1.1,4.8-1.7,9.7-1.7,14.7C116.5,65.9,117,70.7,118.2,75.2z"/>
	<path d="M290.6,117.5c-5.5,2.3-11.1,3.5-16.7,3.5c-8.9,0-16.8-1.5-23.9-4.6c-7.1-3.1-13-7.3-17.9-12.7c-4.9-5.4-8.6-11.7-11.2-19
		c-2.6-7.3-3.9-15.1-3.9-23.6c0-8.6,1.3-16.7,3.9-24.1c2.6-7.4,6.3-13.9,11.2-19.4c4.9-5.5,10.8-9.8,17.9-13
		c7.1-3.1,15-4.7,23.9-4.7c5.9,0,11.7,0.9,17.3,2.7c5.6,1.8,10.6,4.4,15.1,7.9c4.5,3.5,8.2,7.7,11.1,12.8c2.9,5.1,4.7,10.9,5.3,17.5
		h-24.3c-1.5-6.5-4.4-11.3-8.7-14.6c-4.3-3.2-9.6-4.9-15.7-4.9c-5.7,0-10.6,1.1-14.6,3.3c-4,2.2-7.2,5.2-9.7,8.9s-4.3,8-5.4,12.7
		c-1.1,4.8-1.7,9.7-1.7,14.7c0,4.9,0.6,9.6,1.7,14.2c1.1,4.6,2.9,8.7,5.4,12.4c2.5,3.7,5.7,6.6,9.7,8.8c4,2.2,8.9,3.3,14.6,3.3
		c8.4,0,14.9-2.1,19.5-6.4c4.6-4.3,7.3-10.4,8-18.5h-25.6v-19h48.6v62.5h-16.2l-2.6-13.1C301.2,111.1,296.1,115.2,290.6,117.5z"/>
	<path d="M343.9,37c2.6-7.4,6.3-13.9,11.2-19.4c4.9-5.5,10.8-9.8,17.9-13c7.1-3.1,15-4.7,23.9-4.7c9,0,17,1.6,24,4.7
		c7,3.1,13,7.5,17.8,13c4.9,5.5,8.6,12,11.2,19.4c2.6,7.4,3.9,15.4,3.9,24.1c0,8.4-1.3,16.3-3.9,23.6s-6.3,13.6-11.2,19
		c-4.9,5.4-10.8,9.6-17.8,12.7c-7,3.1-15,4.6-24,4.6c-8.9,0-16.8-1.5-23.9-4.6c-7.1-3.1-13-7.3-17.9-12.7c-4.9-5.4-8.6-11.7-11.2-19
		S340,69.5,340,61.1C340,52.4,341.3,44.4,343.9,37z M367.2,75.2c1.1,4.6,2.9,8.7,5.4,12.4c2.5,3.7,5.7,6.6,9.7,8.8
		c4,2.2,8.9,3.3,14.6,3.3c5.7,0,10.6-1.1,14.6-3.3c4-2.2,7.2-5.2,9.7-8.8c2.5-3.7,4.3-7.8,5.4-12.4c1.1-4.6,1.7-9.3,1.7-14.2
		c0-5.1-0.6-10-1.7-14.7c-1.1-4.8-2.9-9-5.4-12.7c-2.5-3.7-5.7-6.7-9.7-8.9c-4-2.2-8.9-3.3-14.6-3.3c-5.7,0-10.6,1.1-14.6,3.3
		c-4,2.2-7.2,5.2-9.7,8.9c-2.5,3.7-4.3,8-5.4,12.7c-1.1,4.8-1.7,9.7-1.7,14.7C365.5,65.9,366,70.7,367.2,75.2z"/>
</g>
<g>
</g>
<g>
</g>
<g>
</g>
<g>
</g>
<g>
</g>
<g>
</g>
<g>
</g>
<g>
</g>
<g>
</g>
<g>
</g>
<g>
</g>
<g>
</g>
<g>
</g>
<g>
</g>
<g>
</g>
</svg>
